<?xml version="1.0" encoding="utf-8"?>
<!-- Generator: Adobe Illustrator 16.0.0, SVG Export Plug-In . SVG Version: 6.00 Build 0)  -->
<!DOCTYPE svg PUBLIC "-//W3C//DTD SVG 1.1//EN" "http://www.w3.org/Graphics/SVG/1.1/DTD/svg11.dtd">
<svg version="1.1" id="Layer_1" xmlns="http://www.w3.org/2000/svg" xmlns:xlink="http://www.w3.org/1999/xlink" x="0px" y="0px"
	 width="64px" height="64px" viewBox="0 0 64 64" enable-background="new 0 0 64 64" xml:space="preserve">
<path fill="#77D0A9" d="M31.998,0.001C14.326,0.001,0,14.327,0,31.999c0,17.673,14.326,32.002,31.998,32.002
	C49.675,64.001,64,49.672,64,31.999C64,14.327,49.675,0.001,31.998,0.001z"/>
<g>
	<path fill="#FFFFFF" d="M31.998,14.525c5.686,0,10.719,2.724,13.91,6.924h7.396C49.413,13.608,41.348,8.207,31.998,8.207
		c-9.346,0-17.41,5.402-21.303,13.243h7.396C21.282,17.25,26.315,14.525,31.998,14.525z"/>
</g>
<path fill-rule="evenodd" clip-rule="evenodd" fill="#EB1C24" d="M32.117,41.103l-4.326-15.968l-3.218,0.872L28.9,41.975
	c-2.207,1.349-3.376,4.017-2.666,6.638c0.863,3.186,4.147,5.069,7.33,4.206c3.185-0.862,5.067-4.146,4.204-7.331
	C37.057,42.866,34.703,41.155,32.117,41.103z"/>
</svg>
