<?xml version="1.0" encoding="utf-8"?>
<!-- Generator: Adobe Illustrator 16.0.0, SVG Export Plug-In . SVG Version: 6.00 Build 0)  -->
<svg version="1.2" baseProfile="tiny" id="Layer_2" xmlns="http://www.w3.org/2000/svg" xmlns:xlink="http://www.w3.org/1999/xlink"
	 x="0px" y="0px" width="64px" height="64px" viewBox="0 0 64 64" overflow="scroll" xml:space="preserve">
<path fill="#3AD3F2" d="M64,31.998C64,49.672,49.674,64,32.001,64C14.328,64,0,49.672,0,31.998C0,14.327,14.328,0,32.001,0
	C49.674,0,64,14.327,64,31.998z"/>
<path fill="#FFFFFF" d="M13.376,44.322c0,2.15,1.746,3.893,3.893,3.893H47.11c2.146,0,3.892-1.742,3.892-3.893V28.207H13.376V44.322
	z"/>
<path fill="#EB1C24" d="M47.11,16.646H17.269c-2.146,0-3.893,1.745-3.893,3.893v7.667h37.625v-7.667
	C51.002,18.392,49.256,16.646,47.11,16.646z"/>
<path fill="#FFFFFF" d="M43.218,16.646v-1.299c0-0.954-0.777-1.729-1.73-1.729c-0.954,0-1.73,0.775-1.73,1.729v1.299v3.46v0.435
	c0,0.956,0.776,1.73,1.73,1.73c0.953,0,1.73-0.774,1.73-1.73v-0.435V16.646z"/>
<path fill="#FFFFFF" d="M25.053,16.646v-1.299c0-0.954-0.775-1.729-1.729-1.729c-0.957,0-1.731,0.775-1.731,1.729v1.299v3.46v0.435
	c0,0.956,0.775,1.73,1.731,1.73c0.954,0,1.729-0.774,1.729-1.73v-0.435V16.646z"/>
</svg>
