<?xml version="1.0" encoding="utf-8"?>
<!-- Generator: Adobe Illustrator 15.1.0, SVG Export Plug-In . SVG Version: 6.00 Build 0)  -->
<!DOCTYPE svg PUBLIC "-//W3C//DTD SVG 1.1//EN" "http://www.w3.org/Graphics/SVG/1.1/DTD/svg11.dtd">
<svg version="1.1" id="Layer_1" xmlns="http://www.w3.org/2000/svg" xmlns:xlink="http://www.w3.org/1999/xlink" x="0px" y="0px"
	 width="22px" height="22px" viewBox="0 0 22 22" enable-background="new 0 0 22 22" xml:space="preserve">
<g>
	<path opacity="0.3" fill="#777777" enable-background="new    " d="M20.52,5.504c-0.935-1.62-2.283-3.028-4.02-4.03
		S12.87,0.007,11,0.01V11L20.52,5.504z"/>
	<g>
		<path fill="#777777" d="M11,2.444c4.718,0,8.557,3.837,8.557,8.556c0,4.717-3.839,8.555-8.557,8.555
			c-4.717,0-8.556-3.838-8.556-8.555S6.283,2.444,11,2.444 M11,0C4.925,0,0,4.925,0,11c0,6.076,4.925,11,11,11s11-4.924,11-11
			C22,4.925,17.075,0,11,0L11,0z"/>
	</g>
	
		<line fill="none" stroke="#777777" stroke-width="1.5277" stroke-linecap="round" stroke-linejoin="round" stroke-miterlimit="10" x1="6.672" y1="11" x2="11" y2="11"/>
	
		<line fill="none" stroke="#777777" stroke-width="1.5277" stroke-linecap="round" stroke-linejoin="round" stroke-miterlimit="10" x1="16.766" y1="7.672" x2="11" y2="11"/>
</g>
</svg>
