<?xml version="1.0" encoding="utf-8"?>
<!-- Generator: Adobe Illustrator 15.1.0, SVG Export Plug-In . SVG Version: 6.00 Build 0)  -->
<!DOCTYPE svg PUBLIC "-//W3C//DTD SVG 1.1//EN" "http://www.w3.org/Graphics/SVG/1.1/DTD/svg11.dtd">
<svg version="1.1" id="Layer_1" xmlns="http://www.w3.org/2000/svg" xmlns:xlink="http://www.w3.org/1999/xlink" x="0px" y="0px"
	 width="22px" height="22px" viewBox="3 3 22 22" enable-background="new 3 3 22 22" xml:space="preserve">
<g>
	<g opacity="0.3">
		<path fill="#777777" d="M14,3C9.929,3,6.383,5.216,4.481,8.504L14,14V3z"/>
	</g>
	<g>
		<path fill="#777777" d="M14,5.444c4.717,0,8.555,3.837,8.555,8.556c0,4.717-3.838,8.555-8.555,8.555
			c-4.717,0-8.556-3.838-8.556-8.555C5.444,9.283,9.283,5.444,14,5.444 M14,3C7.925,3,3,7.925,3,14c0,6.076,4.925,11,11,11
			c6.076,0,11-4.924,11-11C25,7.925,20.076,3,14,3L14,3z"/>
	</g>
	
		<line fill="none" stroke="#777777" stroke-width="1.5277" stroke-linecap="round" stroke-linejoin="round" stroke-miterlimit="10" x1="14" y1="14" x2="17.913" y2="11.74"/>
	
		<line fill="none" stroke="#777777" stroke-width="1.5277" stroke-linecap="round" stroke-linejoin="round" stroke-miterlimit="10" x1="8.234" y1="10.672" x2="14" y2="14"/>
</g>
</svg>
