<?xml version="1.0" encoding="utf-8"?>
<!-- Generator: Adobe Illustrator 15.1.0, SVG Export Plug-In . SVG Version: 6.00 Build 0)  -->
<!DOCTYPE svg PUBLIC "-//W3C//DTD SVG 1.1//EN" "http://www.w3.org/Graphics/SVG/1.1/DTD/svg11.dtd">
<svg version="1.1" id="Layer_1" xmlns="http://www.w3.org/2000/svg" xmlns:xlink="http://www.w3.org/1999/xlink" x="0px" y="0px"
	 width="22px" height="28px" viewBox="0 0 22 28" enable-background="new 0 0 22 28" xml:space="preserve">
<g>
	<g>
		<path fill="#66CCFF" d="M19.555,4.869h-2.443V6.65c0,1.009-0.457,1.825-1.02,1.825H5.907c-0.562,0-1.018-0.816-1.018-1.825V4.869
			H2.444C1.095,4.869,0,5.96,0,7.305v18.261C0,26.909,1.095,28,2.444,28h17.11C20.904,28,22,26.909,22,25.565V7.305
			C22,5.96,20.904,4.869,19.555,4.869z"/>
		<path fill="#66CCFF" d="M14.666,3.651h-0.074c0.049-0.196,0.074-0.398,0.074-0.607s-0.025-0.413-0.074-0.609
			C14.254,1.046,12.773,0,11,0C9.226,0,7.746,1.046,7.407,2.435c-0.048,0.196-0.074,0.4-0.074,0.609s0.026,0.411,0.074,0.607H7.333
			c-0.675,0-1.222,0.545-1.222,1.218v1.218c0,0.673,0.547,1.218,1.222,1.218h7.333c0.676,0,1.223-0.545,1.223-1.218V4.869
			C15.889,4.196,15.342,3.651,14.666,3.651z M9.777,4.869V2.435h2.444v2.435H9.777z"/>
	</g>
	<g>
		<path fill-rule="evenodd" clip-rule="evenodd" fill="#FFFFFF" d="M4.04,17.964l1.962-1.954l5.055,5.034L9.095,23L4.04,17.964z"/>
		<path fill-rule="evenodd" clip-rule="evenodd" fill="#FFFFFF" d="M15.998,12.261l1.961,1.953l-8.864,8.83L7.133,21.09
			L15.998,12.261z"/>
	</g>
</g>
</svg>
