<?xml version="1.0" encoding="utf-8"?>
<!-- Generator: Adobe Illustrator 15.1.0, SVG Export Plug-In . SVG Version: 6.00 Build 0)  -->
<!DOCTYPE svg PUBLIC "-//W3C//DTD SVG 1.1//EN" "http://www.w3.org/Graphics/SVG/1.1/DTD/svg11.dtd">
<svg version="1.1" id="Layer_1" xmlns="http://www.w3.org/2000/svg" xmlns:xlink="http://www.w3.org/1999/xlink" x="0px" y="0px"
	 width="25px" height="22px" viewBox="0 0 25 22" enable-background="new 0 0 25 22" xml:space="preserve">
<g>
	<path fill="#66CCFF" d="M23.732,3.125H12.592v-1.84C12.592,0.576,12.023,0,11.325,0H4.561C3.862,0,3.294,0.576,3.294,1.285v1.84
		H1.267C0.567,3.125,0,3.7,0,4.409v16.304C0,21.424,0.567,22,1.267,22l3.169-0.012c0.088-0.477,0.189-1.328,0.305-1.49
		c0.62-0.883,4.041-1.926,4.799-2.168c0.808-0.26,1.448-1.285,1.179-2.375c-0.166-0.678-0.86-1.338-1.36-2.502
		c-0.338,0.023-0.709-0.42-0.852-1.038c-0.146-0.63,0.002-1.201,0.326-1.323c-0.009-0.148-0.016-0.297-0.016-0.457
		c0-3.29,2.364-4.238,3.701-4.238c1.34,0,3.749,0.924,3.749,4.238c0,0.163-0.007,0.313-0.015,0.464
		c0.314,0.132,0.455,0.696,0.314,1.316c-0.143,0.61-0.507,1.052-0.843,1.042c-0.515,1.18-1.237,1.814-1.403,2.498
		c-0.272,1.09,0.416,2.15,1.178,2.375c0.765,0.225,4.179,1.285,4.8,2.168c0.1,0.139,0.184,1.037,0.254,1.49L23.732,22
		C24.432,22,25,21.424,25,20.713V4.409C25,3.7,24.432,3.125,23.732,3.125z"/>
</g>
</svg>
