<?xml version="1.0" encoding="utf-8"?>
<!-- Generator: Adobe Illustrator 15.1.0, SVG Export Plug-In . SVG Version: 6.00 Build 0)  -->
<!DOCTYPE svg PUBLIC "-//W3C//DTD SVG 1.1//EN" "http://www.w3.org/Graphics/SVG/1.1/DTD/svg11.dtd">
<svg version="1.1" id="Layer_1" xmlns="http://www.w3.org/2000/svg" xmlns:xlink="http://www.w3.org/1999/xlink" x="0px" y="0px"
	 width="45px" height="45px" viewBox="0 0 45 45" enable-background="new 0 0 45 45" xml:space="preserve">
<g>
	<path fill="#F0F0F0" d="M45,39.643C45,42.602,42.602,45,39.643,45H5.357C2.398,45,0,42.602,0,39.643V5.357C0,2.398,2.398,0,5.357,0
		h34.285C42.602,0,45,2.398,45,5.357V39.643z"/>
</g>
<path fill="#8BB8DB" d="M39.826,45c-0.176-0.747-0.389-3.367-0.649-3.731c-1.404-1.968-8.138-4.334-9.869-4.838
	c-1.725-0.501-3.279-2.87-2.67-5.306c0.382-1.525,2.015-2.943,3.182-5.579c0.76,0.021,1.586-0.958,1.903-2.323
	c0.323-1.387,0.003-2.646-0.707-2.939c0.017-0.337,0.032-0.674,0.032-1.035c0-7.398-5.455-9.463-8.486-9.463
	c-3.03,0-8.382,2.116-8.382,9.463c0,0.354,0.016,0.689,0.033,1.021c-0.734,0.27-1.066,1.547-0.738,2.953
	c0.322,1.381,1.164,2.368,1.93,2.322c1.136,2.601,2.703,4.068,3.082,5.58c0.608,2.436-0.841,4.729-2.671,5.306
	c-1.718,0.542-8.463,2.87-9.869,4.838C5.648,41.686,5.392,44.1,5.174,45H39.826z"/>
</svg>
