<?xml version="1.0" encoding="utf-8"?>
<!-- Generator: Adobe Illustrator 15.1.0, SVG Export Plug-In . SVG Version: 6.00 Build 0)  -->
<!DOCTYPE svg PUBLIC "-//W3C//DTD SVG 1.1//EN" "http://www.w3.org/Graphics/SVG/1.1/DTD/svg11.dtd">
<svg version="1.1" id="Layer_1" xmlns="http://www.w3.org/2000/svg" xmlns:xlink="http://www.w3.org/1999/xlink" x="0px" y="0px"
	 width="20px" height="20px" viewBox="0 0 20 20" enable-background="new 0 0 20 20" xml:space="preserve">
<circle fill="#FFFFFF" cx="10" cy="9.999" r="10"/>
<g>
	<path fill="#66CCFF" d="M13.764,15.262c-0.867,0.992-2.121,1.488-3.76,1.488c-1.64,0-2.894-0.496-3.76-1.488
		C5.081,14.044,4.5,12.29,4.5,10c0-2.336,0.581-4.09,1.744-5.262c0.867-0.992,2.12-1.488,3.76-1.488c1.639,0,2.893,0.496,3.76,1.488
		C14.92,5.91,15.5,7.664,15.5,10C15.5,12.29,14.92,14.044,13.764,15.262z M12.266,13.323c0.557-0.779,0.836-1.887,0.836-3.323
		c0-1.431-0.279-2.537-0.836-3.319c-0.559-0.782-1.312-1.172-2.262-1.172S8.296,5.898,7.731,6.677C7.165,7.456,6.882,8.563,6.882,10
		s0.283,2.544,0.849,3.323c0.565,0.778,1.323,1.168,2.273,1.168S11.707,14.102,12.266,13.323z"/>
</g>
</svg>
