<?xml version="1.0" encoding="utf-8"?>
<!-- Generator: Adobe Illustrator 15.1.0, SVG Export Plug-In . SVG Version: 6.00 Build 0)  -->
<!DOCTYPE svg PUBLIC "-//W3C//DTD SVG 1.1//EN" "http://www.w3.org/Graphics/SVG/1.1/DTD/svg11.dtd">
<svg version="1.1" id="Layer_1" xmlns="http://www.w3.org/2000/svg" xmlns:xlink="http://www.w3.org/1999/xlink" x="0px" y="0px"
	 width="22px" height="22px" viewBox="0 0 22 22" enable-background="new 0 0 22 22" xml:space="preserve">
<g>
	<g opacity="0.3">
		<path fill="#FF0000" d="M11,0C6.929,0,3.383,2.216,1.481,5.504L11,11V0z"/>
	</g>
	<g>
		<path fill="#FF0000" d="M11,2.444c4.717,0,8.557,3.837,8.557,8.556c0,4.718-3.84,8.557-8.557,8.557S2.444,15.718,2.444,11
			C2.444,6.283,6.283,2.444,11,2.444 M11,0C4.925,0,0,4.925,0,11s4.925,11,11,11c6.076,0,11-4.925,11-11S17.076,0,11,0L11,0z"/>
	</g>
	
		<line fill="none" stroke="#FF0000" stroke-width="1.5277" stroke-linecap="round" stroke-linejoin="round" stroke-miterlimit="10" x1="11" y1="11" x2="14.913" y2="8.74"/>
	
		<line fill="none" stroke="#FF0000" stroke-width="1.5277" stroke-linecap="round" stroke-linejoin="round" stroke-miterlimit="10" x1="5.234" y1="7.672" x2="11" y2="11"/>
</g>
</svg>
