<?xml version="1.0" encoding="utf-8"?>
<!-- Generator: Adobe Illustrator 15.1.0, SVG Export Plug-In . SVG Version: 6.00 Build 0)  -->
<!DOCTYPE svg PUBLIC "-//W3C//DTD SVG 1.1//EN" "http://www.w3.org/Graphics/SVG/1.1/DTD/svg11.dtd">
<svg version="1.1" id="Layer_1" xmlns="http://www.w3.org/2000/svg" xmlns:xlink="http://www.w3.org/1999/xlink" x="0px" y="0px"
	 width="25px" height="25px" viewBox="0 0 25 25" enable-background="new 0 0 25 25" xml:space="preserve">
<g>
	<path fill="#66CCFF" d="M17.986,12.782c0,0.587-0.478,1.063-1.062,1.063H4.17c-0.587,0-1.064-0.477-1.064-1.063
		c0-0.588,0.477-1.065,1.064-1.065h7.401c-0.576-1.281-0.343-2.841,0.706-3.891l0.137-0.138H4.17c-0.587,0-1.064-0.477-1.064-1.065
		c0-0.589,0.477-1.066,1.064-1.066h10.371L18.84,1.25c-0.047-0.003-0.094-0.007-0.141-0.007H2.396C1.072,1.243,0,2.317,0,3.643V22.6
		C0,23.926,1.072,25,2.396,25H18.7c1.321,0,2.396-1.074,2.396-2.4V8.833l-3.314,3.321C17.908,12.331,17.986,12.546,17.986,12.782z
		 M16.924,20.006H4.17c-0.587,0-1.064-0.477-1.064-1.064c0-0.59,0.477-1.065,1.064-1.065h12.753c0.586,0,1.062,0.478,1.062,1.065
		C17.986,19.529,17.51,20.006,16.924,20.006z"/>
	<path fill="#66CCFF" d="M22.963,0c0.521,0,1.043,0.199,1.439,0.597c0.797,0.797,0.797,2.088,0,2.885l-8.23,8.246
		c-0.396,0.398-0.918,0.598-1.438,0.598c-0.521,0-1.043-0.2-1.439-0.598c-0.796-0.796-0.796-2.088,0-2.885l8.229-8.246
		C21.922,0.199,22.441,0,22.963,0"/>
</g>
</svg>
