<?xml version="1.0" encoding="utf-8"?>
<!-- Generator: Adobe Illustrator 15.1.0, SVG Export Plug-In . SVG Version: 6.00 Build 0)  -->
<!DOCTYPE svg PUBLIC "-//W3C//DTD SVG 1.1//EN" "http://www.w3.org/Graphics/SVG/1.1/DTD/svg11.dtd">
<svg version="1.1" id="Layer_1" xmlns="http://www.w3.org/2000/svg" xmlns:xlink="http://www.w3.org/1999/xlink" x="0px" y="0px"
	 width="45px" height="45px" viewBox="0 0 45 45" enable-background="new 0 0 45 45" xml:space="preserve">
<path fill="#666666" d="M39.643,2.143c1.772,0,3.215,1.442,3.215,3.215v34.285c0,1.772-1.442,3.215-3.215,3.215H5.357
	c-1.772,0-3.215-1.442-3.215-3.215V5.357c0-1.772,1.442-3.215,3.215-3.215H39.643 M39.643,0H5.357C2.398,0,0,2.398,0,5.357v34.285
	C0,42.602,2.398,45,5.357,45h34.285C42.602,45,45,42.602,45,39.643V5.357C45,2.398,42.602,0,39.643,0L39.643,0z"/>
</svg>
