<?xml version="1.0" encoding="utf-8"?>
<!-- Generator: Adobe Illustrator 15.1.0, SVG Export Plug-In . SVG Version: 6.00 Build 0)  -->
<!DOCTYPE svg PUBLIC "-//W3C//DTD SVG 1.1//EN" "http://www.w3.org/Graphics/SVG/1.1/DTD/svg11.dtd">
<svg version="1.1" id="Layer_1" xmlns="http://www.w3.org/2000/svg" xmlns:xlink="http://www.w3.org/1999/xlink" x="0px" y="0px"
	 width="40px" height="40px" viewBox="0 0 40 40" enable-background="new 0 0 40 40" xml:space="preserve">
<g>
	<circle fill="#7BC8A6" cx="19.999" cy="20" r="20"/>
	<g>
		<path fill="#FFFFFF" d="M19.999,9.078c3.553,0,6.699,1.702,8.693,4.328h4.623c-2.433-4.901-7.474-8.277-13.316-8.277
			c-5.842,0-10.882,3.376-13.314,8.277h4.622C13.302,10.78,16.447,9.078,19.999,9.078z"/>
	</g>
	<path fill-rule="evenodd" clip-rule="evenodd" fill="#E92127" d="M20.073,25.688l-2.704-9.98l-2.011,0.545l2.704,9.98
		c-1.379,0.844-2.109,2.51-1.666,4.149c0.54,1.991,2.592,3.168,4.582,2.629c1.99-0.54,3.166-2.591,2.627-4.583
		C23.16,26.791,21.689,25.722,20.073,25.688z"/>
</g>
</svg>
