<?xml version="1.0" encoding="utf-8"?>
<!-- Generator: Adobe Illustrator 15.1.0, SVG Export Plug-In . SVG Version: 6.00 Build 0)  -->
<!DOCTYPE svg PUBLIC "-//W3C//DTD SVG 1.1//EN" "http://www.w3.org/Graphics/SVG/1.1/DTD/svg11.dtd">
<svg version="1.1" id="Layer_1" xmlns="http://www.w3.org/2000/svg" xmlns:xlink="http://www.w3.org/1999/xlink" x="0px" y="0px"
	 width="30px" height="30px" viewBox="0 0 30 30" enable-background="new 0 0 30 30" xml:space="preserve">
<g>
	<path d="M30,14.999C30,23.283,23.285,30,15,30C6.716,30,0,23.283,0,14.999C0,6.716,6.716,0,15,0C23.285,0,30,6.716,30,14.999z
		 M21.424,6.445h-3.213v1.606c0,0.532-0.238,0.964-0.534,0.964h-5.354c-0.295,0-0.535-0.432-0.535-0.964V6.445H8.576
		c-0.709,0-1.285,0.575-1.285,1.285v14.133c0,0.709,0.576,1.285,1.285,1.285h12.848c0.709,0,1.285-0.576,1.285-1.285V7.73
		C22.709,7.021,22.133,6.445,21.424,6.445z M17.569,7.73V6.445c0-0.354-0.287-0.642-0.643-0.642h-0.038
		c0.025-0.104,0.038-0.211,0.038-0.321c0-0.887-0.862-1.606-1.927-1.606s-1.927,0.719-1.927,1.606c0,0.11,0.013,0.217,0.038,0.321
		h-0.038c-0.355,0-0.643,0.288-0.643,0.642V7.73c0,0.355,0.288,0.643,0.643,0.643h3.854C17.282,8.373,17.569,8.085,17.569,7.73z"/>
	<g>
		<rect x="14.358" y="5.161" fill-rule="evenodd" clip-rule="evenodd" width="1.284" height="1.285"/>
	</g>
	<g>
		
			<line fill="none" stroke="#000000" stroke-width="1.1905" stroke-linecap="round" stroke-linejoin="round" stroke-miterlimit="10" x1="10.927" y1="11.656" x2="14.222" y2="14.95"/>
		
			<line fill="none" stroke="#000000" stroke-width="1.1905" stroke-linecap="round" stroke-linejoin="round" stroke-miterlimit="10" x1="14.222" y1="11.656" x2="10.927" y2="14.95"/>
	</g>
	
		<circle fill="none" stroke="#000000" stroke-width="1.1905" stroke-linecap="round" stroke-linejoin="round" stroke-miterlimit="10" cx="12.655" cy="18.844" r="1.728"/>
	
		<path fill="none" stroke="#000000" stroke-width="1.1905" stroke-linecap="round" stroke-linejoin="round" stroke-miterlimit="10" d="
		M18.457,13.303c0,0-1.389,3.582-4.262,4.725"/>
	<polygon points="19.889,15.635 15.92,13.381 19.913,10.971 	"/>
</g>
</svg>
