<?xml version="1.0" encoding="utf-8"?>
<!-- Generator: Adobe Illustrator 15.1.0, SVG Export Plug-In . SVG Version: 6.00 Build 0)  -->
<!DOCTYPE svg PUBLIC "-//W3C//DTD SVG 1.1//EN" "http://www.w3.org/Graphics/SVG/1.1/DTD/svg11.dtd">
<svg version="1.1" id="Layer_1" xmlns="http://www.w3.org/2000/svg" xmlns:xlink="http://www.w3.org/1999/xlink" x="0px" y="0px"
	 width="30px" height="30px" viewBox="0 0 30 30" enable-background="new 0 0 30 30" xml:space="preserve">
<g>
	<path d="M30,14.999C30,23.283,23.284,30,15,30C6.716,30,0,23.283,0,14.999C0,6.715,6.716,0,15,0C23.284,0,30,6.715,30,14.999z
		 M22.084,7.803h-1.826V7.194c0-0.447-0.363-0.81-0.811-0.81s-0.812,0.363-0.812,0.81v0.609h-6.892V7.194
		c0-0.447-0.363-0.81-0.811-0.81c-0.448,0-0.812,0.363-0.812,0.81v0.609H8.095c-1.006,0-1.824,0.817-1.824,1.824v3.595v7.554
		c0,1.008,0.818,1.825,1.824,1.825h13.989c1.004,0,1.822-0.817,1.822-1.825v-7.554V9.627C23.906,8.621,23.088,7.803,22.084,7.803z"
		/>
	<rect x="8.651" y="9.814" fill="#231F20" width="12.875" height="3.408"/>
</g>
</svg>
