<?xml version="1.0" encoding="utf-8"?>
<!-- Generator: Adobe Illustrator 15.1.0, SVG Export Plug-In . SVG Version: 6.00 Build 0)  -->
<!DOCTYPE svg PUBLIC "-//W3C//DTD SVG 1.1//EN" "http://www.w3.org/Graphics/SVG/1.1/DTD/svg11.dtd">
<svg version="1.1" id="Layer_1" xmlns="http://www.w3.org/2000/svg" xmlns:xlink="http://www.w3.org/1999/xlink" x="0px" y="0px"
	 width="30px" height="30px" viewBox="0 0 30 30" enable-background="new 0 0 30 30" xml:space="preserve">
<g>
	<circle cx="18.546" cy="17.944" r="3.681"/>
	<path d="M30,15c0,8.285-6.715,15-15,15C6.715,30,0,23.285,0,15C0,6.716,6.715,0,15,0C23.285,0,30,6.716,30,15z M24.473,17.943
		c0-0.254-0.021-0.502-0.052-0.748l1.835-0.596l-0.682-2.1l-1.831,0.595c-0.243-0.441-0.542-0.845-0.885-1.208l1.134-1.562
		l-1.784-1.297l-1.135,1.562c-0.448-0.211-0.923-0.372-1.423-0.466v-1.927h-2.207v1.927c-0.5,0.094-0.977,0.254-1.424,0.466
		l-1.135-1.562L13.1,12.324l1.135,1.562c-0.342,0.363-0.642,0.767-0.885,1.208L11.519,14.5l-0.682,2.099l1.835,0.597
		c-0.031,0.246-0.052,0.494-0.052,0.748s0.021,0.503,0.052,0.748l-1.834,0.597l0.682,2.099l1.831-0.594
		c0.243,0.441,0.542,0.845,0.885,1.208L13.1,23.562l1.785,1.298l1.135-1.562c0.447,0.211,0.924,0.371,1.424,0.465v1.927h2.207
		v-1.927c0.499-0.094,0.975-0.253,1.422-0.465l1.135,1.562l1.786-1.298l-1.135-1.562c0.343-0.364,0.644-0.767,0.886-1.208
		l1.83,0.594l0.682-2.1l-1.835-0.596C24.451,18.445,24.473,18.197,24.473,17.943z M12.841,10.927v-1.46h-1.272
		c-0.081-0.342-0.216-0.662-0.396-0.952l0.901-0.901L11.041,6.58l-0.902,0.902c-0.29-0.18-0.609-0.316-0.951-0.396V5.813H7.728
		v1.272c-0.342,0.08-0.66,0.216-0.95,0.396L5.875,6.58L4.842,7.614l0.901,0.901c-0.18,0.29-0.315,0.609-0.396,0.951H4.075v1.46
		h1.273c0.081,0.342,0.216,0.661,0.396,0.951l-0.902,0.902l1.033,1.033l0.902-0.902c0.29,0.18,0.608,0.316,0.95,0.396v1.273h1.461
		v-1.273c0.342-0.08,0.661-0.216,0.951-0.396l0.902,0.902l1.032-1.034l-0.901-0.901c0.18-0.29,0.316-0.609,0.396-0.951H12.841z"/>
</g>
</svg>
