<?xml version="1.0" encoding="utf-8"?>
<!-- Generator: Adobe Illustrator 15.1.0, SVG Export Plug-In . SVG Version: 6.00 Build 0)  -->
<!DOCTYPE svg PUBLIC "-//W3C//DTD SVG 1.1//EN" "http://www.w3.org/Graphics/SVG/1.1/DTD/svg11.dtd">
<svg version="1.1" id="Layer_1" xmlns="http://www.w3.org/2000/svg" xmlns:xlink="http://www.w3.org/1999/xlink" x="0px" y="0px"
	 width="40px" height="40px" viewBox="0 0 40 40" enable-background="new 0 0 40 40" xml:space="preserve">
<g>
	<circle fill="#FD8A8F" cx="20" cy="20" r="20"/>
	<path fill="#FFFFFF" d="M26.899,27.967l-3.397-3.396c-1.702,1.309-3.832,2.09-6.142,2.09c-5.566,0-10.095-4.527-10.095-10.094
		S11.794,6.472,17.36,6.472c5.565,0,10.094,4.528,10.094,10.095c0,2.27-0.755,4.365-2.024,6.053l3.409,3.41L26.899,27.967z
		 M24.408,16.566c0-3.886-3.162-7.047-7.048-7.047c-3.886,0-7.048,3.162-7.048,7.047c0,3.885,3.162,7.047,7.048,7.047
		C21.246,23.613,24.408,20.452,24.408,16.566z"/>
	<g>
		<path fill="#EB1C24" d="M33.035,28.905l-3.979-3.979c-0.53-0.529-1.258-0.733-1.945-0.625c-0.452,0.072-0.887,0.277-1.236,0.625
			c-0.385,0.386-0.59,0.876-0.637,1.379c-0.061,0.645,0.145,1.309,0.639,1.801l3.979,3.979c0.878,0.879,2.302,0.879,3.18,0
			C33.914,31.207,33.914,29.783,33.035,28.905z"/>
		<polygon fill="#FFFFFF" points="27.111,24.301 25.43,22.619 23.502,24.57 25.238,26.305 		"/>
	</g>
</g>
</svg>
