<?xml version="1.0" encoding="utf-8"?>
<!-- Generator: Adobe Illustrator 15.1.0, SVG Export Plug-In . SVG Version: 6.00 Build 0)  -->
<!DOCTYPE svg PUBLIC "-//W3C//DTD SVG 1.1//EN" "http://www.w3.org/Graphics/SVG/1.1/DTD/svg11.dtd">
<svg version="1.1" id="Layer_1" xmlns="http://www.w3.org/2000/svg" xmlns:xlink="http://www.w3.org/1999/xlink" x="0px" y="0px"
	 width="40px" height="40px" viewBox="0 0 40 40" enable-background="new 0 0 40 40" xml:space="preserve">
<g>
	<circle fill="#99CC00" cx="20" cy="19.999" r="20"/>
	<path fill-rule="evenodd" clip-rule="evenodd" fill="#FFFFFF" d="M28.565,8.594h-4.283v2.142c0,0.709-0.319,1.285-0.714,1.285
		h-7.137c-0.394,0-0.713-0.576-0.713-1.285V8.594h-4.284c-0.945,0-1.713,0.767-1.713,1.713V29.15c0,0.946,0.768,1.713,1.713,1.713
		h17.131c0.946,0,1.713-0.767,1.713-1.713V10.307C30.278,9.36,29.512,8.594,28.565,8.594z"/>
	<g>
		<path fill-rule="evenodd" clip-rule="evenodd" fill="#FFFFFF" d="M17.431,11.759c-0.801,0-1.452-0.651-1.452-1.452V8.594
			c0-0.589,0.353-1.097,0.857-1.324C16.86,5.779,18.271,4.573,20,4.573c1.733,0,3.146,1.211,3.164,2.706
			c0.514,0.232,0.857,0.734,0.857,1.315v1.713c0,0.8-0.651,1.452-1.452,1.452H17.431z M20.261,7.999V7.476h-0.522v0.522H20.261z"/>
		<path fill="#99CC00" d="M20,5.168c1.419,0,2.569,0.959,2.569,2.142c0,0.146-0.019,0.289-0.052,0.428h0.052
			c0.474,0,0.856,0.384,0.856,0.856v1.713c0,0.473-0.383,0.856-0.856,0.856h-5.139c-0.474,0-0.857-0.383-0.857-0.856V8.594
			c0-0.473,0.383-0.856,0.857-0.856h0.051c-0.034-0.139-0.051-0.281-0.051-0.428C17.431,6.127,18.581,5.168,20,5.168 M19.144,8.594
			h1.713V6.881h-1.713V8.594 M20,3.978c-1.921,0-3.51,1.283-3.733,2.933c-0.534,0.37-0.884,0.987-0.884,1.684v1.713
			c0,1.129,0.918,2.047,2.047,2.047h5.139c1.129,0,2.047-0.918,2.047-2.047V8.594c0-0.697-0.35-1.313-0.883-1.683
			C23.51,5.261,21.921,3.978,20,3.978L20,3.978z"/>
	</g>
	<g>
		
			<line fill="none" stroke="#EB1C24" stroke-width="1.5873" stroke-linecap="round" stroke-linejoin="round" stroke-miterlimit="10" x1="14.569" y1="15.541" x2="18.962" y2="19.933"/>
		
			<line fill="none" stroke="#EB1C24" stroke-width="1.5873" stroke-linecap="round" stroke-linejoin="round" stroke-miterlimit="10" x1="18.962" y1="15.541" x2="14.569" y2="19.933"/>
	</g>
	
		<circle fill="none" stroke="#EB1C24" stroke-width="1.5873" stroke-linecap="round" stroke-linejoin="round" stroke-miterlimit="10" cx="16.873" cy="25.124" r="2.303"/>
	
		<path fill="none" stroke="#EB1C24" stroke-width="1.5873" stroke-linecap="round" stroke-linejoin="round" stroke-miterlimit="10" d="
		M24.609,17.737c0,0-1.852,4.777-5.683,6.298"/>
	<polygon fill="#EB1C24" points="26.519,20.846 21.227,17.841 26.551,14.627 	"/>
</g>
</svg>
