<?xml version="1.0" encoding="utf-8"?>
<!-- Generator: Adobe Illustrator 15.1.0, SVG Export Plug-In . SVG Version: 6.00 Build 0)  -->
<!DOCTYPE svg PUBLIC "-//W3C//DTD SVG 1.1//EN" "http://www.w3.org/Graphics/SVG/1.1/DTD/svg11.dtd">
<svg version="1.1" id="Layer_1" xmlns="http://www.w3.org/2000/svg" xmlns:xlink="http://www.w3.org/1999/xlink" x="0px" y="0px"
	 width="30px" height="30px" viewBox="0 0 30 30" enable-background="new 0 0 30 30" xml:space="preserve">
<path d="M30,14.999C30,23.282,23.285,30,15,30C6.715,30,0,23.282,0,14.999C0,6.715,6.715,0,15,0C23.285,0,30,6.715,30,14.999z
	 M15,6.809c2.665,0,5.024,1.276,6.52,3.245h3.467C23.162,6.379,19.382,3.846,15,3.846c-4.381,0-8.162,2.533-9.986,6.208H8.48
	C9.976,8.085,12.335,6.809,15,6.809z M15.055,19.266l-2.028-7.485l-1.509,0.409l2.028,7.485c-1.034,0.632-1.583,1.883-1.249,3.11
	c0.404,1.494,1.943,2.377,3.436,1.973c1.493-0.404,2.376-1.943,1.971-3.436C17.371,20.093,16.268,19.291,15.055,19.266z"/>
</svg>
