<?xml version="1.0" encoding="utf-8"?>
<!-- Generator: Adobe Illustrator 15.1.0, SVG Export Plug-In . SVG Version: 6.00 Build 0)  -->
<!DOCTYPE svg PUBLIC "-//W3C//DTD SVG 1.1//EN" "http://www.w3.org/Graphics/SVG/1.1/DTD/svg11.dtd">
<svg version="1.1" id="Layer_1" xmlns="http://www.w3.org/2000/svg" xmlns:xlink="http://www.w3.org/1999/xlink" x="0px" y="0px"
	 width="30px" height="30px" viewBox="0 0 30 30" enable-background="new 0 0 30 30" xml:space="preserve">
<g>
	<path d="M30,14.999C30,23.283,23.285,30,15,30C6.716,30,0,23.283,0,14.999C0,6.716,6.716,0,15,0C23.285,0,30,6.716,30,14.999z
		 M13.497,13.601l0.514-0.514l-2.933-2.933l-0.713-1.759l-2.25-2.635L5.117,8.756l2.635,2.251l1.854,0.618l0,0l2.615,2.615
		l0.078-0.071C12.629,13.852,13.046,13.655,13.497,13.601z M23.428,20.963l-5.486-4.951l-1.016,1.017
		c-0.055,0.448-0.25,0.867-0.57,1.198l-0.564,0.625l4.624,5.124c0.354,0.354,0.926,0.353,1.278-0.001l1.734-1.732
		C23.781,21.889,23.781,21.316,23.428,20.963z M26.739,10.634l-0.69-0.69c-0.404-0.404-1.836-0.375-1.836-0.375l-0.596-0.596
		c0.16-0.38,0.088-0.834-0.222-1.144l-0.691-0.691c-0.31-0.309-0.764-0.382-1.143-0.221L20.85,6.205
		c-0.406-0.407-1.727-1.406-3.363-1.106c-1.635,0.3-2.81,1.291-2.81,1.291s2.879,0.115,4.009,1.244
		c0.247,0.248,0.611,0.612,1.024,1.025c0.066,0.066,0.138,0.138,0.206,0.206l-5.985,5.985l-0.067-0.067
		c-0.038-0.004-0.075-0.007-0.112-0.007c-0.231,0-0.46,0.085-0.636,0.261L6.55,20.963c-0.353,0.354-0.353,0.926,0,1.279l1.733,1.733
		c0.177,0.177,0.408,0.265,0.64,0.265c0.231,0,0.463-0.088,0.64-0.265l5.925-6.565c0.205-0.205,0.287-0.48,0.255-0.748l-0.068-0.067
		l5.987-5.986c0.07,0.071,0.145,0.145,0.213,0.214c0.352,0.353,0.547,0.546,0.547,0.546s0.018,1.401,0.409,1.793l0.69,0.69
		c0.408,0.407,1.068,0.407,1.476,0l1.743-1.744C27.147,11.702,27.147,11.042,26.739,10.634z"/>
</g>
</svg>
