<?xml version="1.0" encoding="utf-8"?>
<!-- Generator: Adobe Illustrator 15.1.0, SVG Export Plug-In . SVG Version: 6.00 Build 0)  -->
<!DOCTYPE svg PUBLIC "-//W3C//DTD SVG 1.1//EN" "http://www.w3.org/Graphics/SVG/1.1/DTD/svg11.dtd">
<svg version="1.1" id="Layer_1" xmlns="http://www.w3.org/2000/svg" xmlns:xlink="http://www.w3.org/1999/xlink" x="0px" y="0px"
	 width="30px" height="30px" viewBox="0 0 30 30" enable-background="new 0 0 30 30" xml:space="preserve">
<g>
	<path d="M30,15c0,8.285-6.715,15-15,15C6.715,30,0,23.285,0,15C0,6.717,6.715,0,15,0C23.285,0,30,6.717,30,15z M24.623,14.142
		c0-3.886-4.309-7.037-9.623-7.037c-5.314,0-9.623,3.15-9.623,7.037c0,3.887,4.309,7.038,9.623,7.038
		c0.311,0,0.617-0.014,0.92-0.034c2.07,3.101,6.917,3.037,6.917,3.037c-1.735-1.414-2.487-2.827-2.72-4.089
		C22.821,18.848,24.623,16.652,24.623,14.142z"/>
	<g>
		<circle cx="14.89" cy="14.142" r="1.359"/>
		<circle cx="19.336" cy="14.142" r="1.359"/>
		<circle cx="10.444" cy="14.142" r="1.359"/>
	</g>
</g>
</svg>
