<?xml version="1.0" encoding="utf-8"?>
<!-- Generator: Adobe Illustrator 15.1.0, SVG Export Plug-In . SVG Version: 6.00 Build 0)  -->
<!DOCTYPE svg PUBLIC "-//W3C//DTD SVG 1.1//EN" "http://www.w3.org/Graphics/SVG/1.1/DTD/svg11.dtd">
<svg version="1.1" id="Layer_1" xmlns="http://www.w3.org/2000/svg" xmlns:xlink="http://www.w3.org/1999/xlink" x="0px" y="0px"
	 width="25px" height="22px" viewBox="0 0 25 22" enable-background="new 0 0 25 22" xml:space="preserve">
<g>
	<path fill="#66CCFF" d="M25,4.505v16.183C25,21.412,24.433,22,23.733,22H1.267C0.567,22,0,21.412,0,20.688V4.505
		C0,3.78,0.567,3.192,1.267,3.192h2.027v-1.88C3.294,0.587,3.862,0,4.561,0h6.764c0.699,0,1.267,0.587,1.267,1.312v1.88h11.142
		C24.433,3.192,25,3.78,25,4.505z M12.5,5.561L6.634,9.595v6.393l5.866,4.035l5.867-4.035V9.595L12.5,5.561z"/>
	<polygon fill="#66CCFF" points="12.5,13.596 12.5,18.299 16.961,15.266 16.961,10.588 	"/>
</g>
</svg>
