<?xml version="1.0" encoding="utf-8"?>
<!-- Generator: Adobe Illustrator 15.1.0, SVG Export Plug-In . SVG Version: 6.00 Build 0)  -->
<!DOCTYPE svg PUBLIC "-//W3C//DTD SVG 1.1//EN" "http://www.w3.org/Graphics/SVG/1.1/DTD/svg11.dtd">
<svg version="1.1" id="Layer_1" xmlns="http://www.w3.org/2000/svg" xmlns:xlink="http://www.w3.org/1999/xlink" x="0px" y="0px"
	 width="22px" height="25px" viewBox="0 0 22 25" enable-background="new 0 0 22 25" xml:space="preserve">
<g>
	<path fill="#66CCFF" d="M15.621,0H2.267C1.017,0,0,1.042,0,2.322v20.355C0,23.958,1.017,25,2.267,25h17.466
		C20.982,25,22,23.958,22,22.678L21.998,6.323L15.621,0z M20.118,6.364h-2.56c-1.092,0-1.98-0.91-1.98-2.028V1.874L20.118,6.364z"/>
	<g>
		<g>
			<path fill="#FFFFFF" d="M19.379,11.364l-0.535-0.549c-0.314-0.322-1.427-0.3-1.427-0.3l-0.462-0.474
				c0.123-0.303,0.068-0.664-0.172-0.91l-0.537-0.55c-0.241-0.246-0.594-0.304-0.887-0.176l-0.554-0.566
				c-0.315-0.324-1.341-1.118-2.612-0.878c-1.27,0.237-2.182,1.025-2.182,1.025s2.237,0.091,3.114,0.99
				c0.191,0.196,0.475,0.486,0.795,0.815c0.052,0.053,0.107,0.11,0.16,0.164l-4.647,4.761L9.38,14.663
				c-0.029-0.003-0.058-0.005-0.087-0.005c-0.179,0-0.357,0.066-0.494,0.208l-5.098,4.713c-0.274,0.281-0.274,0.736,0,1.018
				l1.346,1.378c0.137,0.142,0.317,0.212,0.497,0.212s0.359-0.07,0.497-0.212l4.602-5.222c0.159-0.161,0.222-0.382,0.198-0.594
				l-0.053-0.054l4.648-4.761c0.056,0.055,0.113,0.114,0.166,0.17c0.273,0.28,0.424,0.434,0.424,0.434s0.015,1.114,0.319,1.427
				l0.536,0.549c0.316,0.324,0.828,0.324,1.146,0l1.354-1.387C19.695,12.213,19.695,11.688,19.379,11.364z"/>
		</g>
		<g>
			<g>
				<path fill="#FFFFFF" d="M8.948,13.427l0.328-0.335l-2.059-2.11L6.663,9.582L4.915,7.486L2.587,9.869l2.047,1.792l1.439,0.491
					l1.812,1.856l0.068-0.062C8.231,13.673,8.575,13.494,8.948,13.427z"/>
				<path fill="#FFFFFF" d="M11.541,17.617l-0.457,0.519l3.384,3.839c0.273,0.281,0.718,0.281,0.992,0l1.346-1.378
					c0.274-0.281,0.274-0.736,0-1.018l-4.03-3.726L12.048,16.6C11.982,16.979,11.808,17.334,11.541,17.617z"/>
			</g>
		</g>
	</g>
</g>
</svg>
