<?xml version="1.0" encoding="utf-8"?>
<!-- Generator: Adobe Illustrator 15.1.0, SVG Export Plug-In . SVG Version: 6.00 Build 0)  -->
<!DOCTYPE svg PUBLIC "-//W3C//DTD SVG 1.1//EN" "http://www.w3.org/Graphics/SVG/1.1/DTD/svg11.dtd">
<svg version="1.1" id="Layer_1" xmlns="http://www.w3.org/2000/svg" xmlns:xlink="http://www.w3.org/1999/xlink" x="0px" y="0px"
	 width="25px" height="22px" viewBox="0 0 25 22" enable-background="new 0 0 25 22" xml:space="preserve">
<g>
	<path fill="#66CCFF" d="M18.799,11.329c0,0.656-0.25,1.147-0.339,1.3l-4.85,3.336c0.079-0.26,0.14-0.574,0.14-0.952
		c0-0.328-0.092-0.666-0.156-0.908c0.064-0.043,5.098-3.472,5.098-3.472C18.751,10.812,18.799,11.042,18.799,11.329z"/>
	<path fill="#66CCFF" d="M18.507,15.771l-4.835,3.326c0.046-0.209,0.078-0.447,0.078-0.719c0-0.425-0.078-0.771-0.176-1.051
		l5.023-3.455c0.077,0.109,0.201,0.354,0.201,0.822C18.799,15.308,18.583,15.666,18.507,15.771z"/>
	<path fill="#66CCFF" d="M25,4.354v16.378c0,0.7-0.567,1.269-1.267,1.269H1.267C0.567,22,0,21.432,0,20.731V4.354
		c0-0.701,0.567-1.269,1.267-1.269h2.028V1.268C3.294,0.568,3.862,0,4.561,0h6.764c0.7,0,1.267,0.568,1.267,1.268v1.817h11.142
		C24.433,3.085,25,3.653,25,4.354z M19.938,11.643c0-1.201-0.564-1.862-0.629-1.935c-0.031-0.034-7.401-5.037-7.401-5.037
		c-0.192-0.131-0.441-0.13-0.631,0.001L5.674,8.524C5.54,8.618,5.452,8.771,5.431,8.936C5.41,9.101,5.459,9.273,5.567,9.4
		c0.004,0.004,0.034,0.046,0.072,0.109l6.485,4.443c0.271,0.185,0.344,0.561,0.164,0.839c-0.114,0.174-0.301,0.27-0.491,0.27
		c-0.112,0-0.226-0.033-0.327-0.103l-5.64-3.864c-0.091,0.364-0.245,0.559-0.249,0.563c-0.202,0.218-0.206,0.567-0.014,0.795
		c0.002,0.002,0.022,0.029,0.037,0.051l6.521,4.468c0.271,0.185,0.344,0.561,0.164,0.838c-0.114,0.175-0.301,0.27-0.491,0.27
		c-0.112,0-0.226-0.033-0.327-0.102l-5.631-3.858c-0.091,0.387-0.253,0.587-0.258,0.593c-0.117,0.124-0.173,0.296-0.155,0.468
		c0.018,0.174,0.11,0.33,0.252,0.424l7.298,4.949c0.095,0.064,0.204,0.096,0.313,0.096c0.112,0,0.221-0.033,0.318-0.099l5.601-3.853
		c0.034-0.023,0.73-0.794,0.73-2.002c0-0.674-0.181-1.133-0.36-1.424C19.742,12.912,19.938,12.342,19.938,11.643z"/>
</g>
</svg>
