<?xml version="1.0" encoding="utf-8"?>
<!-- Generator: Adobe Illustrator 15.1.0, SVG Export Plug-In . SVG Version: 6.00 Build 0)  -->
<!DOCTYPE svg PUBLIC "-//W3C//DTD SVG 1.1//EN" "http://www.w3.org/Graphics/SVG/1.1/DTD/svg11.dtd">
<svg version="1.1" id="Layer_1" xmlns="http://www.w3.org/2000/svg" xmlns:xlink="http://www.w3.org/1999/xlink" x="0px" y="0px"
	 width="23px" height="23px" viewBox="0 0 23 23" enable-background="new 0 0 23 23" xml:space="preserve">
<circle fill="#CC0000" cx="11.5" cy="11.517" r="11.5"/>
<g>
	<path fill="#FFFFFF" d="M12.949,11.082c-0.189,0.399-0.924,1.764-1.45,1.764c-0.525,0-1.26-1.365-1.449-1.764
		C9.462,9.927,8.98,8.352,8.98,7.05c0-1.554,0.734-3.212,2.52-3.212c1.786,0,2.52,1.659,2.52,3.212
		C14.02,8.352,13.537,9.927,12.949,11.082z M11.5,19.145c-1.281,0-2.33-1.051-2.33-2.331s1.049-2.331,2.33-2.331
		c1.282,0,2.331,1.051,2.331,2.331S12.781,19.145,11.5,19.145z"/>
</g>
</svg>
