<?xml version="1.0" encoding="utf-8"?>
<!-- Generator: Adobe Illustrator 15.1.0, SVG Export Plug-In . SVG Version: 6.00 Build 0)  -->
<!DOCTYPE svg PUBLIC "-//W3C//DTD SVG 1.1//EN" "http://www.w3.org/Graphics/SVG/1.1/DTD/svg11.dtd">
<svg version="1.1" id="Layer_12" xmlns="http://www.w3.org/2000/svg" xmlns:xlink="http://www.w3.org/1999/xlink" x="0px" y="0px"
	 width="612px" height="792px" viewBox="0 0 612 792" enable-background="new 0 0 612 792" xml:space="preserve">
<g>
	<path fill="#FFFFFF" d="M215.024,557.617l-0.87-0.869c-0.51-0.51-2.313-0.475-2.313-0.475l-0.751-0.75
		c0.202-0.48,0.111-1.053-0.279-1.441l-0.871-0.871c-0.39-0.389-0.962-0.482-1.439-0.279l-0.896-0.896
		c-0.513-0.514-2.177-1.771-4.238-1.393c-2.061,0.377-3.541,1.625-3.541,1.625s3.628,0.145,5.052,1.568
		c0.311,0.311,0.771,0.77,1.291,1.291c0.083,0.083,0.174,0.174,0.26,0.26l-7.542,7.541l-0.085-0.084
		c-0.047-0.006-0.094-0.008-0.141-0.008c-0.291,0-0.58,0.105-0.802,0.328l-8.271,7.467c-0.445,0.445-0.445,1.166,0,1.611
		l2.184,2.184c0.223,0.223,0.515,0.334,0.807,0.334c0.292,0,0.583-0.111,0.806-0.334l7.466-8.271
		c0.258-0.258,0.361-0.605,0.321-0.941l-0.086-0.086l7.543-7.541c0.089,0.088,0.183,0.182,0.27,0.27
		c0.443,0.443,0.688,0.688,0.688,0.688s0.022,1.766,0.517,2.26l0.87,0.869c0.513,0.514,1.346,0.514,1.858,0l2.197-2.197
		C215.537,558.963,215.537,558.131,215.024,557.617z"/>
</g>
<path fill="#FFFFFF" d="M198.099,560.885l0.532-0.531l-3.341-3.342l-0.898-2.217l-2.836-3.32l-3.776,3.775l3.321,2.838l2.336,0.777
	l2.941,2.94l0.11-0.1C196.936,561.274,197.494,560.992,198.099,560.885z"/>
<path fill="#FFFFFF" d="M202.306,567.523l-0.74,0.82l5.49,6.082c0.445,0.445,1.166,0.445,1.611,0l2.184-2.184
	c0.445-0.445,0.445-1.166,0-1.611l-6.54-5.902l-1.183,1.182C203.021,566.512,202.739,567.072,202.306,567.523z"/>
</svg>
