<?xml version="1.0" encoding="utf-8"?>
<!-- Generator: Adobe Illustrator 15.1.0, SVG Export Plug-In . SVG Version: 6.00 Build 0)  -->
<!DOCTYPE svg PUBLIC "-//W3C//DTD SVG 1.1//EN" "http://www.w3.org/Graphics/SVG/1.1/DTD/svg11.dtd">
<svg version="1.1" id="Layer_1" xmlns="http://www.w3.org/2000/svg" xmlns:xlink="http://www.w3.org/1999/xlink" x="0px" y="0px"
	 width="15px" height="15px" viewBox="4 4 15 15" enable-background="new 4 4 15 15" xml:space="preserve">
<circle fill="#CC0000" cx="11.5" cy="11.5" r="7.5"/>
<g>
	<path fill="#FFFFFF" d="M12.445,11.216c-0.123,0.26-0.603,1.151-0.946,1.151c-0.342,0-0.822-0.891-0.945-1.151
		c-0.383-0.753-0.698-1.78-0.698-2.63c0-1.013,0.479-2.095,1.644-2.095s1.643,1.082,1.643,2.095
		C13.143,9.436,12.828,10.463,12.445,11.216z M11.5,16.475c-0.835,0-1.52-0.686-1.52-1.52c0-0.836,0.684-1.521,1.52-1.521
		c0.836,0,1.52,0.686,1.52,1.521C13.02,15.789,12.336,16.475,11.5,16.475z"/>
</g>
</svg>
