<?xml version="1.0" encoding="utf-8"?>
<!-- Generator: Adobe Illustrator 15.1.0, SVG Export Plug-In . SVG Version: 6.00 Build 0)  -->
<!DOCTYPE svg PUBLIC "-//W3C//DTD SVG 1.1//EN" "http://www.w3.org/Graphics/SVG/1.1/DTD/svg11.dtd">
<svg version="1.1" id="Layer_1" xmlns="http://www.w3.org/2000/svg" xmlns:xlink="http://www.w3.org/1999/xlink" x="0px" y="0px"
	 width="40px" height="40px" viewBox="0 0 40 40" enable-background="new 0 0 40 40" xml:space="preserve">
<g>
	<circle fill="#3AD3F2" cx="20" cy="19.999" r="20"/>
	<path fill="#FFFFFF" d="M8.36,27.701c0,1.344,1.091,2.434,2.433,2.434h18.651c1.341,0,2.432-1.09,2.432-2.434V17.629H8.36V27.701z"
		/>
	<path fill="#EB1C24" d="M29.444,10.404H10.793c-1.342,0-2.433,1.09-2.433,2.433v4.792h23.516v-4.792
		C31.876,11.494,30.785,10.404,29.444,10.404z"/>
	<g>
		<path fill="#FFFFFF" d="M27.011,10.404V9.592c0-0.596-0.485-1.08-1.081-1.08c-0.597,0-1.082,0.484-1.082,1.08v0.812v2.163v0.272
			c0,0.597,0.485,1.081,1.082,1.081c0.596,0,1.081-0.484,1.081-1.081v-0.272V10.404z"/>
	</g>
	<g>
		<path fill="#FFFFFF" d="M15.658,10.404V9.592c0-0.596-0.484-1.08-1.081-1.08c-0.597,0-1.082,0.484-1.082,1.08v0.812v2.163v0.272
			c0,0.597,0.485,1.081,1.082,1.081c0.596,0,1.081-0.484,1.081-1.081v-0.272V10.404z"/>
	</g>
</g>
</svg>
