<?xml version="1.0" encoding="utf-8"?>
<!-- Generator: Adobe Illustrator 15.1.0, SVG Export Plug-In . SVG Version: 6.00 Build 0)  -->
<!DOCTYPE svg PUBLIC "-//W3C//DTD SVG 1.1//EN" "http://www.w3.org/Graphics/SVG/1.1/DTD/svg11.dtd">
<svg version="1.1" id="Layer_1" xmlns="http://www.w3.org/2000/svg" xmlns:xlink="http://www.w3.org/1999/xlink" x="0px" y="0px"
	 width="28px" height="28px" viewBox="0 0 28 28" enable-background="new 0 0 28 28" xml:space="preserve">
<g>
	<path opacity="0.3" fill="#777777" d="M26.115,7.005C24.927,4.944,23.209,3.151,21,1.876s-4.62-1.867-7-1.864V14L26.115,7.005z"/>
	<g>
		<path fill="#777777" d="M14,3.111c6.004,0,10.889,4.884,10.889,10.889c0,6.004-4.885,10.889-10.889,10.889
			C7.996,24.889,3.111,20.004,3.111,14C3.111,7.996,7.996,3.111,14,3.111 M14,0C6.268,0,0,6.268,0,14s6.268,14,14,14s14-6.268,14-14
			S21.732,0,14,0L14,0z"/>
	</g>
	
		<line fill="none" stroke="#777777" stroke-width="1.9444" stroke-linecap="round" stroke-linejoin="round" stroke-miterlimit="10" x1="8.491" y1="14" x2="14" y2="14"/>
	
		<line fill="none" stroke="#777777" stroke-width="1.9444" stroke-linecap="round" stroke-linejoin="round" stroke-miterlimit="10" x1="21.338" y1="9.764" x2="14" y2="14"/>
</g>
</svg>
