<?xml version="1.0" encoding="utf-8"?>
<!-- Generator: Adobe Illustrator 15.1.0, SVG Export Plug-In . SVG Version: 6.00 Build 0)  -->
<!DOCTYPE svg PUBLIC "-//W3C//DTD SVG 1.1//EN" "http://www.w3.org/Graphics/SVG/1.1/DTD/svg11.dtd">
<svg version="1.1" id="Layer_1" xmlns="http://www.w3.org/2000/svg" xmlns:xlink="http://www.w3.org/1999/xlink" x="0px" y="0px"
	 width="24px" height="29px" viewBox="0 0 24 29" enable-background="new 0 0 24 29" xml:space="preserve">
<path fill="#777777" d="M24,4.769v21.706C24,27.868,22.886,29,21.517,29H2.482C1.113,29,0,27.868,0,26.475V4.769
	c0-1.393,1.113-2.525,2.482-2.525h2.759V1.122C5.241,0.503,5.734,0,6.344,0s1.104,0.503,1.104,1.122v1.121h9.379V1.122
	C16.827,0.503,17.321,0,17.931,0c0.61,0,1.104,0.503,1.104,1.122v1.121h2.482C22.886,2.243,24,3.376,24,4.769z M20.776,9.543V5.1
	H3.223v4.443H20.776z M20.501,16.083c0-0.67-0.534-1.214-1.192-1.214H4.691c-0.658,0-1.192,0.544-1.192,1.214
	c0,0.669,0.534,1.212,1.192,1.212h14.617C19.967,17.295,20.501,16.752,20.501,16.083z M20.501,22.799
	c0-0.67-0.534-1.213-1.192-1.213H4.691c-0.658,0-1.192,0.543-1.192,1.213c0,0.669,0.534,1.211,1.192,1.211h14.617
	C19.967,24.01,20.501,23.468,20.501,22.799z"/>
</svg>
