<?xml version="1.0" encoding="utf-8"?>
<!-- Generator: Adobe Illustrator 15.1.0, SVG Export Plug-In . SVG Version: 6.00 Build 0)  -->
<!DOCTYPE svg PUBLIC "-//W3C//DTD SVG 1.1//EN" "http://www.w3.org/Graphics/SVG/1.1/DTD/svg11.dtd">
<svg version="1.1" id="Layer_1" xmlns="http://www.w3.org/2000/svg" xmlns:xlink="http://www.w3.org/1999/xlink" x="0px" y="0px"
	 width="33px" height="40px" viewBox="0 0 33 40" enable-background="new 0 0 33 40" xml:space="preserve">
<path fill="#669900" d="M33,6.577v29.941C33,38.438,31.469,40,29.585,40H3.414C1.531,40,0,38.438,0,36.518V6.577
	c0-1.92,1.531-3.482,3.414-3.482h3.792V1.548C7.207,0.693,7.886,0,8.724,0s1.517,0.693,1.517,1.548v1.546h12.897V1.548
	C23.138,0.693,23.816,0,24.655,0c0.837,0,1.517,0.693,1.517,1.548v1.546h3.413C31.469,3.094,33,4.657,33,6.577z M28.568,13.164
	V7.034H4.432v6.129H28.568z M28.188,22.184c0-0.925-0.733-1.673-1.64-1.673H6.451c-0.906,0-1.64,0.749-1.64,1.673
	c0,0.923,0.734,1.671,1.64,1.671h20.098C27.455,23.854,28.188,23.106,28.188,22.184z M28.188,31.446c0-0.924-0.733-1.672-1.64-1.672
	H6.451c-0.906,0-1.64,0.748-1.64,1.672c0,0.923,0.734,1.672,1.64,1.672h20.098C27.455,33.118,28.188,32.369,28.188,31.446z"/>
</svg>
