<?xml version="1.0" encoding="utf-8"?>
<!-- Generator: Adobe Illustrator 15.1.0, SVG Export Plug-In . SVG Version: 6.00 Build 0)  -->
<!DOCTYPE svg PUBLIC "-//W3C//DTD SVG 1.1//EN" "http://www.w3.org/Graphics/SVG/1.1/DTD/svg11.dtd">
<svg version="1.1" id="Layer_1" xmlns="http://www.w3.org/2000/svg" xmlns:xlink="http://www.w3.org/1999/xlink" x="0px" y="0px"
	 width="37px" height="35px" viewBox="0 0 37 35" enable-background="new 0 0 37 35" xml:space="preserve">
<path fill="#669900" d="M37,7.754v7.548v15.866C37,33.283,35.283,35,33.174,35H3.828C1.717,35,0,33.283,0,31.168V15.302V7.754
	c0-2.113,1.717-3.832,3.828-3.832h4.253V1.702C8.081,0.764,8.842,0,9.782,0c0.938,0,1.7,0.764,1.7,1.702v2.221h14.459V1.702
	C25.941,0.764,26.705,0,27.645,0c0.936,0,1.701,0.764,1.701,1.702v2.221h3.828C35.283,3.923,37,5.641,37,7.754z M32.005,15.287
	V8.138H4.994v7.148H32.005z M4.994,30.37c0,0.42,0.34,0.758,0.759,0.758h5.101c0.418,0,0.758-0.338,0.758-0.758v-3.478
	c0-0.419-0.339-0.759-0.758-0.759H5.753c-0.419,0-0.759,0.34-0.759,0.759V30.37z M25.312,30.37c0,0.42,0.34,0.758,0.759,0.758h5.099
	c0.42,0,0.76-0.338,0.76-0.758v-3.478c0-0.419-0.34-0.759-0.76-0.759h-5.099c-0.419,0-0.759,0.34-0.759,0.759V30.37z M15.153,30.37
	c0,0.42,0.339,0.758,0.759,0.758h5.1c0.419,0,0.759-0.338,0.759-0.758v-3.478c0-0.419-0.34-0.759-0.759-0.759h-5.1
	c-0.42,0-0.759,0.34-0.759,0.759V30.37z M4.994,23.067c0,0.419,0.34,0.759,0.759,0.759h5.101c0.418,0,0.758-0.34,0.758-0.759V19.59
	c0-0.419-0.339-0.759-0.758-0.759H5.753c-0.419,0-0.759,0.34-0.759,0.759V23.067z M25.312,23.067c0,0.419,0.34,0.759,0.759,0.759
	h5.099c0.42,0,0.76-0.34,0.76-0.759V19.59c0-0.419-0.34-0.759-0.76-0.759h-5.099c-0.419,0-0.759,0.34-0.759,0.759V23.067z
	 M15.153,23.067c0,0.419,0.339,0.759,0.759,0.759h5.1c0.419,0,0.759-0.34,0.759-0.759V19.59c0-0.419-0.34-0.759-0.759-0.759h-5.1
	c-0.42,0-0.759,0.34-0.759,0.759V23.067z"/>
</svg>
