<?xml version="1.0" encoding="utf-8"?>
<!-- Generator: Adobe Illustrator 15.1.0, SVG Export Plug-In . SVG Version: 6.00 Build 0)  -->
<!DOCTYPE svg PUBLIC "-//W3C//DTD SVG 1.1//EN" "http://www.w3.org/Graphics/SVG/1.1/DTD/svg11.dtd">
<svg version="1.1" id="Layer_1" xmlns="http://www.w3.org/2000/svg" xmlns:xlink="http://www.w3.org/1999/xlink" x="0px" y="0px"
	 width="40px" height="40px" viewBox="0 0 40 40" enable-background="new 0 0 40 40" xml:space="preserve">
<g>
	<circle fill="#92C8C8" cx="20" cy="19.999" r="20"/>
	<g>
		<path fill="#FFFFFF" d="M31.236,27.949l-8.752-7.899c-0.273-0.272-0.644-0.382-0.998-0.34l-0.272,0.272l-6.711-6.71
			c-0.618,0.619-1.35,1.351-1.96,1.961l6.709,6.71l-0.272,0.272c-0.042,0.354,0.068,0.725,0.341,0.997l7.9,8.754
			c0.471,0.471,1.234,0.471,1.706-0.001l2.311-2.311C31.708,29.185,31.708,28.421,31.236,27.949z"/>
		<g>
			<polygon fill="#EB1C24" points="10.818,7.679 6.822,11.675 10.336,14.677 12.81,15.5 14.771,13.539 13.82,11.193 			"/>
		</g>
	</g>
	<g>
		<g>
			<path fill="#FFFFFF" d="M11.898,32.915c-0.48,0-0.933-0.188-1.273-0.527l-2.311-2.312c-0.702-0.702-0.702-1.845,0-2.547
				l8.776-7.922c0.314-0.316,0.765-0.502,1.246-0.502c0.03,0,0.06,0.001,0.089,0.002l8.497-8.497l3.169,3.167l-8.497,8.497
				c0.025,0.509-0.16,0.998-0.52,1.358l-7.88,8.731C12.832,32.728,12.379,32.915,11.898,32.915z"/>
			<g>
				<path fill="#92C8C8" d="M26.921,11.453c0.725,0.725,1.592,1.592,2.327,2.326L20.9,22.126l0.091,0.091
					c0.042,0.355-0.067,0.724-0.339,0.996l-7.901,8.754c-0.235,0.235-0.544,0.354-0.853,0.354s-0.617-0.118-0.853-0.354
					l-2.311-2.312c-0.471-0.471-0.472-1.233,0-1.705l8.754-7.901c0.234-0.235,0.54-0.349,0.847-0.349c0.05,0,0.1,0.003,0.15,0.009
					l0.09,0.089L26.921,11.453 M26.921,9.769l-0.842,0.842l-7.904,7.905c-0.568,0.037-1.096,0.271-1.504,0.667l-8.735,7.884
					l-0.022,0.021l-0.022,0.021c-0.933,0.935-0.933,2.455,0.001,3.389l2.311,2.312c0.454,0.453,1.055,0.702,1.695,0.702
					c0.64,0,1.242-0.249,1.694-0.702l0.022-0.021l0.021-0.022l7.884-8.735c0.398-0.41,0.631-0.941,0.667-1.505l7.904-7.904
					l0.843-0.843l-0.844-0.842l-1.887-1.886l-0.439-0.439L26.921,9.769L26.921,9.769z"/>
			</g>
		</g>
		<path fill="#EB1C24" d="M35.652,14.179l-0.92-0.921c-0.54-0.54-2.448-0.5-2.448-0.5l-0.795-0.795
			c0.214-0.507,0.118-1.112-0.295-1.525l-0.922-0.92c-0.412-0.413-1.019-0.51-1.523-0.295l-0.95-0.949
			c-0.542-0.542-2.303-1.874-4.483-1.475c-2.181,0.4-3.747,1.721-3.747,1.721s3.84,0.153,5.345,1.659
			c0.33,0.33,0.817,0.816,1.367,1.367c0.899,0.898,1.976,1.975,2.887,2.886c0.469,0.47,0.728,0.729,0.728,0.729
			s0.024,1.868,0.547,2.39l0.921,0.921c0.543,0.542,1.425,0.542,1.967,0l2.324-2.325C36.196,15.602,36.196,14.722,35.652,14.179z"/>
	</g>
</g>
</svg>
