<?xml version="1.0" encoding="utf-8"?>
<!-- Generator: Adobe Illustrator 15.1.0, SVG Export Plug-In . SVG Version: 6.00 Build 0)  -->
<!DOCTYPE svg PUBLIC "-//W3C//DTD SVG 1.1//EN" "http://www.w3.org/Graphics/SVG/1.1/DTD/svg11.dtd">
<svg version="1.1" id="Layer_1" xmlns="http://www.w3.org/2000/svg" xmlns:xlink="http://www.w3.org/1999/xlink" x="0px" y="0px"
	 width="40px" height="40px" viewBox="0 0 40 40" enable-background="new 0 0 40 40" xml:space="preserve">
<g>
	<circle fill="#D39DD0" cx="20" cy="20" r="20"/>
	<rect x="23.258" y="13.595" fill="#FFFFFF" width="2.941" height="20.659"/>
	
		<rect x="23.257" y="13.595" transform="matrix(0.3089 0.9511 -0.9511 0.3089 39.8461 -6.9844)" fill="#FFFFFF" width="2.944" height="20.66"/>
	
		<rect x="23.257" y="13.595" transform="matrix(0.8089 0.588 -0.588 0.8089 18.7951 -9.9675)" fill="#FFFFFF" width="2.943" height="20.66"/>
	
		<rect x="23.257" y="13.595" transform="matrix(-0.8089 0.5879 -0.5879 -0.8089 58.7972 28.7404)" fill="#FFFFFF" width="2.943" height="20.66"/>
	
		<rect x="23.257" y="13.594" transform="matrix(-0.309 0.9511 -0.9511 -0.309 55.1223 7.7982)" fill="#FFFFFF" width="2.942" height="20.659"/>
	<circle fill="#FFFFFF" cx="24.729" cy="23.925" r="7.902"/>
	<circle fill="#EB1C24" cx="24.729" cy="23.925" r="4.907"/>
	<rect x="10.303" y="7.751" fill="#FFFFFF" width="1.948" height="11.688"/>
	
		<rect x="10.304" y="7.75" transform="matrix(0.7072 0.707 -0.707 0.7072 12.913 -3.9927)" fill="#FFFFFF" width="1.948" height="11.689"/>
	<rect x="5.433" y="12.622" fill="#FFFFFF" width="11.689" height="1.948"/>
	
		<rect x="10.303" y="7.751" transform="matrix(-0.707 0.7072 -0.7072 -0.707 28.865 15.2307)" fill="#FFFFFF" width="1.948" height="11.689"/>
	<circle fill="#FFFFFF" cx="11.277" cy="13.595" r="4.269"/>
	<circle fill="#D39DD0" cx="11.277" cy="13.595" r="2.014"/>
</g>
</svg>
